{"title":"Enrique Iglesias Ft. Nicole Scherzinger - Heartbeat [MTV'N HD]","uid":6411106,"size":237265870,"categoryP":"video","categoryS":"music_videos","magnet":"?xt=urn:btih:947afe7ac959e007b42f81c89a42fe735b748efc&amp;dn=Enrique+Iglesias+Ft.+Nicole+Scherzinger+-+Heartbeat+%5BMTV%5C%27N+HD%5D+&amp;tr=udp%3A%2F%2Ftracker.openbittorrent.com%3A80&amp;tr=udp%3A%2F%2Fopen.demonii.com%3A1337&amp;tr=udp%3A%2F%2Ftracker.coppersurfer.tk%3A6969&amp;tr=udp%3A%2F%2Fexodus.desync.com%3A6969","seeders":3,"leechers":0,"uploader":"ankurgow3","files":-1,"time":1305977894,"description":"&quot;Heartbeat&quot; is a song by Spanish recording artist Enrique Iglesias. The song was written by Iglesias, along with his long-term collaborators Jamie Scott and Mark Taylor, for his ninth studio album Euphoria (2010). The mid-tempo ballad, produced by Taylor, features guest vocals from American recording artist Nicole Scherzinger. The song has a melody based on futuristic piano sounds and incorporates elements of dance music. The Rudi Wells' Open Heart Remix of the song later appeared on Scherzinger's debut studio album Killer Love.\n\nVideo\nID                               : 1\nFormat                           : AVC\nFormat/Info                      : Advanced Video Codec\nFormat profile                   : &lt;a class=&quot;__cf_email__&quot; href=&quot;/cdn-cgi/l/email-protection&quot; data-cfemail=&quot;125a7b757a525e263c22&quot;&gt;[email&amp;#160;protected]&lt;/a&gt;&lt;script cf-hash='f9e31' type=&quot;text/javascript&quot;&gt;\n/* &lt;![CDATA[ */!function(){try{var t=&quot;currentScript&quot;in document?document.currentScript:function(){for(var t=document.getElementsByTagName(&quot;script&quot;),e=t.length;e--;)if(t[e].getAttribute(&quot;cf-hash&quot;))return t[e]}();if(t&amp;&amp;t.previousSibling){var e,r,n,i,c=t.previousSibling,a=c.getAttribute(&quot;data-cfemail&quot;);if(a){for(e=&quot;&quot;,r=parseInt(a.substr(0,2),16),n=2;a.length-n;n+=2)i=parseInt(a.substr(n,2),16)^r,e+=String.fromCharCode(i);e=document.createTextNode(e),c.parentNode.replaceChild(e,c)}}}catch(u){}}();/* ]]&gt; */&lt;/script&gt;\nFormat settings, CABAC           : Yes\nFormat settings, ReFrames        : 4 frames\nCodec ID                         : V_MPEG4/ISO/AVC\nDuration                         : 4mn 15s\nBit rate                         : 7 000 Kbps\nWidth                            : 1 920 pixels\nHeight                           : 1 080 pixels\nDisplay aspect ratio             : 16:9\nFrame rate                       : 25.000 fps\nColor space                      : YUV\nChroma subsampling               : 4:2:0\nBit depth                        : 8 bits\nScan type                        : Progressive\nBits/(Pixel*Frame)               : 0.135\nStream size                      : 209 MiB (93%)\nWriting library                  : x264 core 107 r1745 4785e8e\nLanguage                         : English\n\nAudio\nID                               : 2\nFormat                           : AC-3\nFormat/Info                      : Audio Coding 3\nMode extension                   : CM (complete main)\nCodec ID                         : A_AC3\nDuration                         : 4mn 15s\nBit rate mode                    : Constant\nBit rate                         : 384 Kbps\nChannel(s)                       : 2 channels\nChannel positions                : Front: L R\nSampling rate                    : 48.0 KHz\nBit depth                        : 16 bits\nCompression mode                 : Lossy\nStream size                      : 11.7 MiB (5%)\nLanguage                         : English\n\nScreens[*Also In Torrent]:\n\n&lt;link&gt;http://photobucket.com/enriglheartbeat&lt;/link&gt;\n\nPlease Seed &amp; Comment If like...! ;)","torrent":{"xt":"urn:btih:947afe7ac959e007b42f81c89a42fe735b748efc","amp;dn":"Enrique+Iglesias+Ft.+Nicole+Scherzinger+-+Heartbeat+%5BMTV%5C%27N+HD%5D+","amp;tr":["udp%3A%2F%2Ftracker.openbittorrent.com%3A80","udp%3A%2F%2Fopen.demonii.com%3A1337","udp%3A%2F%2Ftracker.coppersurfer.tk%3A6969","udp%3A%2F%2Fexodus.desync.com%3A6969"],"infoHash":"947afe7ac959e007b42f81c89a42fe735b748efc","infoHashBuffer":{"type":"Buffer","data":[148,122,254,122,201,89,224,7,180,47,129,200,154,66,254,115,91,116,142,252]},"announce":[],"urlList":[]}}